<?xml version="1.0" encoding="utf-8"?>
<!-- Generator: Adobe Illustrator 24.2.0, SVG Export Plug-In . SVG Version: 6.00 Build 0)  -->
<svg version="1.1" id="Layer_1" xmlns="http://www.w3.org/2000/svg" xmlns:xlink="http://www.w3.org/1999/xlink" x="0px" y="0px"
	 viewBox="0 0 1920 1162.44" style="enable-background:new 0 0 1920 1162.44;" xml:space="preserve">
<style type="text/css">
	.st0{display:none;fill:none;}
	.st1{fill:url(#SVGID_1_);}
	.st2{fill:url(#SVGID_2_);}
	.st3{fill:url(#SVGID_3_);}
	.st4{fill:#05002F;}
</style>
<rect class="st0" width="1920" height="1162.44"/>
<g>
	<g>
		<g>
			<linearGradient id="SVGID_1_" gradientUnits="userSpaceOnUse" x1="364.6774" y1="544.0374" x2="475.0784" y2="544.0374">
				<stop  offset="0" style="stop-color:#F70C5B"/>
				<stop  offset="1" style="stop-color:#FF4A24"/>
			</linearGradient>
			<path class="st1" d="M475.08,467.93c0,0-65.81-0.27-97.16,57.87c-8.87,16.46-13.24,34.97-13.24,53.66v40.69
				c0,0,19.55-83.36,110.4-91.22V467.93z"/>
		</g>
		<g>
			<linearGradient id="SVGID_2_" gradientUnits="userSpaceOnUse" x1="389.1845" y1="635.2955" x2="475.0784" y2="635.2955">
				<stop  offset="0" style="stop-color:#FF742C"/>
				<stop  offset="1" style="stop-color:#FFC904"/>
			</linearGradient>
			<path class="st2" d="M475.08,576.08c0,0-51.2-0.21-75.59,45.03c-6.9,12.8-10.3,27.2-10.3,41.75v31.66
				c0,0,15.21-64.86,85.89-70.97V576.08z"/>
		</g>
		<linearGradient id="SVGID_3_" gradientUnits="userSpaceOnUse" x1="475.0784" y1="563.7914" x2="590.1312" y2="563.7914">
			<stop  offset="0" style="stop-color:#073E98"/>
			<stop  offset="0.2452" style="stop-color:#0E56A2"/>
			<stop  offset="0.7602" style="stop-color:#2193BB"/>
			<stop  offset="1" style="stop-color:#2AB2C8"/>
		</linearGradient>
		<path class="st3" d="M475.08,576v-47.46c0,0,68.65-5.41,115.05,25.63l-13.32,45.23C576.81,599.4,532.6,569.32,475.08,576z"/>
	</g>
	<g>
		<path class="st4" d="M697.02,548.67H657v26.59h38.66v14.92H657v38.52h-15.6v-94.94h55.61V548.67z"/>
		<path class="st4" d="M724.62,547.92c-1.86,1.86-4.05,2.78-6.58,2.78s-4.72-0.93-6.58-2.78c-1.86-1.85-2.78-4.04-2.78-6.58
			c0-2.53,0.9-4.72,2.71-6.58c1.81-1.85,4.02-2.78,6.65-2.78c2.62,0,4.84,0.93,6.65,2.78c1.81,1.85,2.71,4.05,2.71,6.58
			C727.4,543.88,726.47,546.07,724.62,547.92z M710.72,628.69v-67.82h14.65v67.82H710.72z"/>
		<path class="st4" d="M756.97,572.27c3.71-8.41,10.67-12.61,20.89-12.61v15.87c-5.61-0.36-10.49,0.97-14.65,4
			c-4.16,3.03-6.24,8.03-6.24,14.99v34.18h-14.65v-67.82h14.65V572.27z"/>
		<path class="st4" d="M862.76,559.11c7.69,0,13.88,2.49,18.58,7.46c4.7,4.97,7.05,11.66,7.05,20.07v42.05h-14.65v-41.1
			c0-4.7-1.18-8.34-3.53-10.92c-2.35-2.58-5.56-3.87-9.63-3.87c-4.52,0-8.12,1.49-10.78,4.48c-2.67,2.98-4,7.46-4,13.43v37.98
			h-14.65v-41.1c0-4.7-1.11-8.34-3.32-10.92c-2.22-2.58-5.36-3.87-9.43-3.87c-4.43,0-8.05,1.52-10.85,4.54
			c-2.8,3.03-4.2,7.48-4.2,13.36v37.98h-14.65v-67.82h14.65v8.14c4.34-6.6,10.8-9.9,19.39-9.9c8.68,0,15.1,3.57,19.26,10.72
			C846.53,562.68,853.45,559.11,862.76,559.11z"/>
		<path class="st4" d="M949.98,630.46c-14.29,0-26.13-4.72-35.54-14.17c-9.41-9.45-14.11-21.14-14.11-35.06
			c0-13.92,4.7-25.61,14.11-35.06c9.4-9.45,21.25-14.17,35.54-14.17c8.59,0,16.52,2.04,23.81,6.1c7.28,4.07,12.95,9.58,17.02,16.55
			l-13.56,7.87c-2.53-4.7-6.22-8.43-11.06-11.19c-4.84-2.76-10.24-4.14-16.21-4.14c-10.13,0-18.33,3.21-24.62,9.63
			c-6.29,6.42-9.43,14.56-9.43,24.41c0,9.86,3.14,18,9.43,24.42c6.28,6.42,14.49,9.63,24.62,9.63c5.97,0,11.39-1.38,16.28-4.14
			c4.88-2.76,8.54-6.49,10.99-11.19l13.56,7.73c-3.98,6.96-9.61,12.5-16.89,16.62C966.64,628.4,958.66,630.46,949.98,630.46z"/>
		<path class="st4" d="M1034.61,630.46c-9.95,0-18.4-3.44-25.37-10.31c-6.96-6.87-10.44-15.33-10.44-25.36s3.48-18.49,10.44-25.37
			c6.96-6.87,15.42-10.31,25.37-10.31c10.04,0,18.51,3.44,25.43,10.31c6.92,6.87,10.38,15.33,10.38,25.37s-3.46,18.49-10.38,25.36
			C1053.13,627.02,1044.65,630.46,1034.61,630.46z M1019.56,610.11c4.07,4.07,9.09,6.1,15.06,6.1c5.97,0,10.98-2.03,15.06-6.1
			c4.07-4.07,6.1-9.18,6.1-15.33c0-6.15-2.04-11.26-6.1-15.33c-4.07-4.07-9.09-6.1-15.06-6.1c-5.97,0-10.99,2.03-15.06,6.1
			c-4.07,4.07-6.1,9.18-6.1,15.33C1013.45,600.93,1015.49,606.04,1019.56,610.11z"/>
		<path class="st4" d="M1119.39,559.11c7.78,0,14.06,2.49,18.85,7.46c4.79,4.97,7.19,11.8,7.19,20.48v41.64h-14.65v-40.15
			c0-5.06-1.36-8.95-4.07-11.66c-2.71-2.71-6.42-4.07-11.12-4.07c-5.15,0-9.31,1.61-12.48,4.82c-3.17,3.21-4.75,8.12-4.75,14.72
			v36.35h-14.65v-67.82h14.65v8.68C1102.79,562.59,1109.8,559.11,1119.39,559.11z"/>
		<path class="st4" d="M1196.84,559.11c7.78,0,14.06,2.49,18.85,7.46c4.79,4.97,7.19,11.8,7.19,20.48v41.64h-14.65v-40.15
			c0-5.06-1.36-8.95-4.07-11.66c-2.71-2.71-6.42-4.07-11.12-4.07c-5.16,0-9.32,1.61-12.48,4.82c-3.17,3.21-4.75,8.12-4.75,14.72
			v36.35h-14.65v-67.82h14.65v8.68C1180.24,562.59,1187.25,559.11,1196.84,559.11z"/>
		<path class="st4" d="M1250.14,601.02c1.08,5.15,3.57,9.11,7.46,11.87c3.89,2.76,8.63,4.14,14.24,4.14c7.78,0,13.61-2.8,17.5-8.41
			l12.07,7.05c-6.69,9.86-16.59,14.78-29.7,14.78c-11.03,0-19.94-3.37-26.72-10.1c-6.78-6.74-10.17-15.26-10.17-25.57
			c0-10.13,3.34-18.6,10.04-25.43c6.69-6.83,15.28-10.24,25.77-10.24c9.94,0,18.11,3.48,24.48,10.44
			c6.38,6.96,9.56,15.42,9.56,25.37c0,1.54-0.18,3.57-0.54,6.1H1250.14z M1250,589.09h39.88c-0.99-5.52-3.28-9.68-6.85-12.48
			c-3.57-2.8-7.76-4.2-12.55-4.2c-5.43,0-9.95,1.49-13.56,4.48C1253.3,579.86,1251,583.93,1250,589.09z"/>
		<path class="st4" d="M1349.15,630.46c-10.22,0-18.74-3.44-25.57-10.31c-6.83-6.87-10.24-15.33-10.24-25.36
			c0-10.13,3.41-18.6,10.24-25.43c6.82-6.83,15.35-10.24,25.57-10.24c6.6,0,12.61,1.58,18.04,4.75c5.43,3.17,9.5,7.42,12.21,12.75
			l-12.62,7.32c-1.54-3.26-3.87-5.81-6.98-7.66c-3.12-1.85-6.71-2.78-10.78-2.78c-5.97,0-10.97,2.04-14.99,6.1
			c-4.02,4.07-6.04,9.14-6.04,15.19c0,6.06,2.01,11.12,6.04,15.19c4.02,4.07,9.02,6.1,14.99,6.1c3.98,0,7.57-0.95,10.78-2.85
			c3.21-1.9,5.63-4.43,7.26-7.6l12.62,7.19c-2.9,5.43-7.05,9.72-12.48,12.89C1361.77,628.87,1355.75,630.46,1349.15,630.46z"/>
		<path class="st4" d="M1428.1,574.98h-16.82v32.55c0,2.8,0.63,4.82,1.9,6.04c1.26,1.22,3.14,1.9,5.63,2.04
			c2.49,0.14,5.58,0.11,9.29-0.07v13.16c-11.21,1.36-19.26,0.38-24.14-2.92c-4.88-3.3-7.32-9.38-7.32-18.24v-32.55h-12.48v-14.11
			h12.48v-14.65l14.65-4.34v18.99h16.82V574.98z"/>
		<path class="st4" d="M1470.68,630.46c-9.95,0-18.4-3.44-25.36-10.31c-6.96-6.87-10.44-15.33-10.44-25.36s3.48-18.49,10.44-25.37
			c6.96-6.87,15.42-10.31,25.36-10.31c10.04,0,18.52,3.44,25.43,10.31c6.92,6.87,10.38,15.33,10.38,25.37s-3.46,18.49-10.38,25.36
			C1489.2,627.02,1480.72,630.46,1470.68,630.46z M1455.63,610.11c4.07,4.07,9.09,6.1,15.06,6.1c5.97,0,10.99-2.03,15.06-6.1
			c4.07-4.07,6.1-9.18,6.1-15.33c0-6.15-2.03-11.26-6.1-15.33c-4.07-4.07-9.09-6.1-15.06-6.1c-5.97,0-10.98,2.03-15.06,6.1
			c-4.07,4.07-6.1,9.18-6.1,15.33C1449.53,600.93,1451.56,606.04,1455.63,610.11z"/>
		<path class="st4" d="M1534.43,572.27c3.71-8.41,10.67-12.61,20.89-12.61v15.87c-5.61-0.36-10.49,0.97-14.65,4
			c-4.16,3.03-6.24,8.03-6.24,14.99v34.18h-14.65v-67.82h14.65V572.27z"/>
	</g>
</g>
</svg>
