<?xml version="1.0" encoding="UTF-8" standalone="no" ?>
<!DOCTYPE svg PUBLIC "-//W3C//DTD SVG 1.1//EN" "http://www.w3.org/Graphics/SVG/1.1/DTD/svg11.dtd">
<svg xmlns="http://www.w3.org/2000/svg" xmlns:xlink="http://www.w3.org/1999/xlink" version="1.1" width="350" height="350" viewBox="0 0 350 350" xml:space="preserve">
<desc>Created with Fabric.js 1.7.22</desc>
<defs>
</defs>
<g id="icon" style="stroke: none; stroke-width: 1; stroke-dasharray: none; stroke-linecap: butt; stroke-linejoin: miter; stroke-miterlimit: 10; fill: none; fill-rule: nonzero; opacity: 1;" transform="translate(-1.9444444444444287 -1.9444444444444287) scale(3.89 3.89)" >
	<path d="M 88.095 16.485 c -0.02 -0.018 -0.039 -0.038 -0.06 -0.055 c -1.011 -0.886 -2.33 -1.427 -3.776 -1.427 H 5.741 c -1.443 0 -2.76 0.539 -3.77 1.422 c -0.029 0.024 -0.056 0.051 -0.084 0.077 C 0.731 17.553 0 19.063 0 20.745 v 48.51 c 0 3.166 2.576 5.741 5.741 5.741 h 78.518 c 3.166 0 5.741 -2.575 5.741 -5.741 v -48.51 C 90 19.055 89.261 17.537 88.095 16.485 z M 82.317 19.003 L 46.907 47.449 c -1.123 0.902 -2.693 0.902 -3.814 0 L 7.683 19.003 H 82.317 z M 84.259 70.996 H 5.741 C 4.781 70.996 4 70.215 4 69.255 V 21.176 l 36.588 29.393 c 1.299 1.043 2.854 1.564 4.412 1.564 c 1.556 0 3.113 -0.521 4.412 -1.564 L 86 21.176 v 48.079 C 86 70.215 85.219 70.996 84.259 70.996 z" style="stroke: none; stroke-width: 1; stroke-dasharray: none; stroke-linecap: butt; stroke-linejoin: miter; stroke-miterlimit: 10; fill: rgb(0,0,0); fill-rule: nonzero; opacity: 1;" transform=" matrix(1 0 0 1 0 0) " stroke-linecap="round" />
	<path d="M 63.904 65.313 H 45 c -1.104 0 -2 -0.896 -2 -2 s 0.896 -2 2 -2 h 18.904 c 1.104 0 2 0.896 2 2 S 65.009 65.313 63.904 65.313 z" style="stroke: none; stroke-width: 1; stroke-dasharray: none; stroke-linecap: butt; stroke-linejoin: miter; stroke-miterlimit: 10; fill: rgb(0,0,0); fill-rule: nonzero; opacity: 1;" transform=" matrix(1 0 0 1 0 0) " stroke-linecap="round" />
	<path d="M 81.051 65.313 H 71.83 c -1.104 0 -2 -0.896 -2 -2 s 0.896 -2 2 -2 h 9.221 c 1.104 0 2 0.896 2 2 S 82.155 65.313 81.051 65.313 z" style="stroke: none; stroke-width: 1; stroke-dasharray: none; stroke-linecap: butt; stroke-linejoin: miter; stroke-miterlimit: 10; fill: rgb(0,0,0); fill-rule: nonzero; opacity: 1;" transform=" matrix(1 0 0 1 0 0) " stroke-linecap="round" />
</g>
</svg>